<?xml version="1.0" standalone="no"?>
<!DOCTYPE svg PUBLIC "-//W3C//DTD SVG 20010904//EN"
 "http://www.w3.org/TR/2001/REC-SVG-20010904/DTD/svg10.dtd">
<svg version="1.0" xmlns="http://www.w3.org/2000/svg"
 width="1219.000000pt" height="1598.000000pt" viewBox="0 0 1219.000000 1598.000000"
 preserveAspectRatio="xMidYMid meet">

<g transform="translate(0.000000,1598.000000) scale(0.100000,-0.100000)"
fill="#000000" stroke="none">
<path d="M5750 15554 c-570 -72 -1043 -270 -1440 -602 -203 -170 -427 -425
-556 -635 -37 -61 -64 -91 -120 -133 -233 -175 -389 -385 -468 -627 -100 -306
-68 -682 82 -985 28 -57 31 -72 41 -238 41 -667 265 -1234 643 -1629 48 -51
88 -95 88 -98 0 -2 -35 -21 -77 -41 -182 -87 -308 -218 -375 -391 -19 -50 -23
-79 -23 -175 0 -108 2 -119 31 -181 22 -45 52 -87 94 -127 33 -33 57 -63 52
-66 -6 -3 -37 -44 -70 -90 -248 -346 -421 -806 -493 -1306 -12 -82 -35 -190
-54 -250 -80 -254 -110 -451 -109 -740 0 -234 16 -377 61 -550 14 -53 26 -130
28 -175 2 -78 23 -183 85 -427 17 -65 30 -121 30 -126 0 -4 -28 -21 -62 -37
-114 -53 -198 -162 -198 -255 0 -84 84 -232 218 -387 40 -46 72 -88 72 -95 0
-7 -22 -47 -49 -89 -107 -167 -186 -227 -386 -294 -233 -78 -374 -163 -515
-312 -168 -178 -245 -358 -257 -603 -6 -125 -6 -126 -75 -310 -141 -374 -264
-757 -314 -980 -42 -185 -27 -392 50 -697 117 -459 385 -887 635 -1012 74 -37
136 -57 257 -82 144 -30 516 -37 749 -15 504 49 1096 170 1298 266 242 114
232 549 -28 1175 -121 291 -175 456 -234 715 l-29 125 28 31 c15 17 49 86 76
154 l48 122 81 38 c284 132 573 418 788 778 41 70 85 148 98 174 l22 46 86 12
c47 7 139 25 204 41 l118 29 67 -40 c102 -60 242 -118 350 -147 86 -22 111
-24 220 -20 l123 5 13 -27 c21 -40 74 -204 106 -326 37 -140 81 -366 125 -642
19 -120 39 -243 45 -273 5 -30 16 -102 24 -160 146 -1071 229 -1564 311 -1852
60 -205 144 -401 210 -488 19 -25 50 -68 68 -95 56 -84 112 -123 237 -164 251
-82 867 -65 1435 41 371 68 716 210 1045 429 214 143 343 250 556 463 262 263
469 527 636 811 39 66 79 132 89 147 30 43 23 78 -35 181 -30 53 -73 132 -97
177 -47 91 -81 120 -141 120 -33 0 -41 6 -86 63 -110 136 -250 250 -400 326
-190 95 -405 124 -612 82 -166 -34 -364 -107 -562 -206 l-67 -34 -14 22 c-8
12 -29 51 -46 85 l-32 64 11 91 c17 138 -8 306 -65 436 -23 53 -37 105 -45
171 -35 288 -111 824 -151 1065 -61 368 -117 560 -229 790 -97 200 -200 339
-338 457 -62 53 -73 66 -69 88 9 46 -12 264 -33 344 -24 90 -53 152 -102 215
l-35 45 34 85 c160 406 221 796 178 1127 -40 306 -168 572 -362 756 -46 43
-50 51 -56 105 -10 92 -44 225 -86 327 l-37 94 44 58 c110 146 172 350 173
565 0 165 -38 305 -107 396 -14 19 -24 37 -22 42 2 5 50 46 108 92 438 348
754 811 904 1326 168 578 163 1273 -14 1873 -163 553 -449 1013 -810 1301
-434 346 -1072 588 -1750 664 -172 19 -688 19 -840 -1z m855 -218 c240 -32
488 -85 685 -148 123 -39 353 -129 347 -135 -3 -2 -63 3 -134 13 -163 23 -532
26 -643 5 -241 -43 -469 -160 -635 -326 -204 -202 -293 -416 -375 -900 -69
-409 -94 -775 -87 -1269 4 -285 9 -395 26 -522 45 -344 102 -544 193 -679 95
-139 189 -228 373 -350 178 -118 366 -206 597 -279 264 -84 443 -114 713 -123
203 -6 383 10 526 46 38 10 69 14 69 10 0 -9 -180 -158 -258 -212 l-60 -43
-109 22 c-567 114 -2221 230 -3176 223 l-357 -3 -43 32 c-69 54 -215 202 -282
287 -177 226 -314 519 -394 848 -31 125 -72 376 -64 390 2 4 19 -4 36 -17 163
-122 379 -127 534 -13 113 85 192 190 283 380 151 314 224 644 224 1007 0 443
-103 666 -344 745 -30 10 -88 20 -129 21 -40 2 -75 5 -77 7 -2 2 32 47 76 100
437 528 1023 829 1745 896 139 13 606 5 740 -13z m827 -481 c455 -53 860 -235
1103 -497 128 -137 301 -482 394 -783 224 -730 178 -1572 -119 -2170 -124
-251 -180 -314 -357 -407 -238 -125 -536 -180 -849 -158 -152 11 -162 12 -314
42 -425 81 -869 303 -1064 531 -126 148 -178 312 -227 717 -33 268 -33 830 0
1165 47 491 120 868 201 1043 110 236 318 410 589 492 41 13 100 26 130 30
101 13 383 10 513 -5z m-3248 -736 c94 -26 153 -129 181 -318 78 -514 -152
-1284 -432 -1448 -95 -56 -211 -23 -329 93 -57 56 -143 170 -133 177 2 2 29 8
60 14 91 18 148 51 230 132 114 114 184 248 235 449 87 345 18 657 -172 768
-24 14 -44 30 -44 35 0 14 161 87 215 97 70 13 143 14 189 1z m-477 -315 c66
-42 113 -164 113 -294 0 -88 -38 -279 -74 -367 -53 -134 -141 -249 -213 -280
-74 -30 -159 -3 -180 59 -35 104 -34 377 2 512 33 125 134 320 188 365 39 31
119 34 164 5z m1418 -3354 c1042 -30 2372 -141 2709 -227 121 -30 164 -67 206
-178 20 -51 23 -79 23 -180 0 -141 -23 -246 -80 -359 l-36 -71 -31 40 c-84
110 -226 229 -343 288 -170 87 -646 161 -1208 188 -276 14 -693 6 -860 -16
-96 -13 -820 -152 -1139 -219 -161 -34 -483 51 -564 150 -101 122 -32 332 148
454 192 130 391 152 1175 130z m1575 -739 c344 -32 622 -79 735 -123 116 -46
252 -162 327 -278 121 -190 164 -286 199 -450 32 -151 33 -451 1 -630 -12 -69
-30 -174 -41 -235 -32 -184 -44 -427 -31 -616 12 -171 45 -374 80 -494 23 -80
32 -65 -80 -138 -82 -54 -259 -229 -540 -535 -217 -237 -388 -403 -539 -524
-85 -68 -221 -162 -226 -156 -2 2 8 28 23 58 24 48 27 67 27 150 0 76 -4 104
-22 142 l-21 46 47 40 c26 22 61 66 79 99 33 63 56 171 46 221 -5 26 -2 32 23
45 41 22 126 115 151 168 62 128 46 272 -40 344 -44 37 -67 45 -187 61 -116
15 -177 31 -300 77 -74 27 -95 41 -172 113 -112 105 -251 197 -410 273 -120
58 -380 151 -420 151 -33 0 -31 24 9 106 57 113 118 303 143 440 99 556 -140
1090 -584 1300 -189 89 -492 53 -782 -94 -207 -104 -442 -291 -621 -493 -48
-54 -89 -97 -91 -95 -2 2 17 61 42 132 86 239 237 520 359 669 22 28 45 53 49
56 5 4 30 0 56 -8 69 -21 218 -43 288 -43 39 0 266 41 610 109 301 60 595 114
653 120 58 6 121 13 140 15 19 2 208 3 420 1 286 -3 440 -9 600 -24z m-1826
-536 c111 -47 245 -162 320 -274 192 -286 225 -646 94 -1020 -32 -93 -135
-311 -146 -311 -4 0 -43 12 -87 26 -146 46 -289 124 -479 259 -66 47 -106 47
-153 0 -33 -33 -35 -39 -30 -83 6 -56 37 -87 189 -184 53 -35 97 -66 98 -70 0
-3 -24 -14 -52 -24 -72 -23 -225 -95 -301 -140 -141 -85 -301 -226 -391 -344
-159 -208 -275 -502 -293 -743 -3 -48 -9 -90 -13 -92 -23 -14 -256 282 -301
383 -33 74 -71 208 -96 342 -25 136 -25 554 0 690 26 137 67 299 88 345 10 22
27 69 39 104 122 370 546 841 934 1040 208 106 459 148 580 96z m3405 -878
c96 -196 127 -356 118 -622 -7 -222 -40 -388 -130 -650 -47 -138 -58 -161 -67
-145 -16 30 -50 169 -72 295 -19 112 -22 164 -22 380 1 235 3 260 33 425 17
96 39 234 48 307 13 104 20 130 30 122 7 -6 35 -56 62 -112z m-3223 -936 c-3
-5 -22 -12 -43 -16 -67 -12 -217 -67 -318 -115 -404 -193 -685 -617 -685
-1031 0 -106 14 -168 59 -268 21 -47 46 -111 56 -141 31 -101 118 -262 173
-322 14 -15 23 -31 19 -34 -10 -10 -147 35 -203 67 -106 60 -184 181 -232 358
-21 83 -25 118 -26 256 0 98 4 183 12 220 116 531 442 859 997 1005 108 29
202 39 191 21z m719 -208 c184 -93 285 -170 419 -323 149 -170 242 -300 307
-430 45 -89 57 -151 40 -203 -15 -44 -66 -89 -95 -85 -50 7 -309 362 -465 639
-74 132 -92 149 -155 149 -44 0 -83 -32 -97 -79 -10 -34 -8 -43 21 -102 46
-90 170 -296 248 -409 93 -136 197 -263 307 -376 76 -78 98 -108 110 -146 22
-76 -2 -135 -68 -163 -64 -26 -137 -15 -137 22 0 45 -83 184 -159 269 -238
263 -415 483 -551 686 -65 96 -113 118 -180 83 -37 -19 -50 -43 -50 -93 0 -32
13 -57 71 -143 151 -220 338 -453 506 -632 57 -60 105 -121 124 -158 64 -127
59 -261 -11 -331 -35 -36 -41 -38 -99 -38 l-61 0 -24 48 c-46 91 -128 192
-313 385 -198 208 -376 427 -478 591 -74 118 -104 146 -155 146 -34 0 -48 -6
-76 -34 -58 -58 -46 -98 89 -294 104 -152 255 -336 413 -505 246 -263 344
-385 344 -428 0 -21 -63 -77 -106 -95 -103 -43 -243 14 -509 207 -104 75 -128
97 -144 133 -26 61 -49 70 -161 71 -85 0 -100 3 -142 27 -25 15 -60 46 -77 67
-42 53 -118 203 -137 271 -9 30 -32 88 -51 128 -44 94 -55 162 -42 264 39 315
243 600 537 751 176 91 452 161 687 174 61 3 121 11 134 18 28 14 42 10 186
-62z m959 -470 c26 -5 28 -8 23 -40 -6 -37 -51 -113 -66 -113 -5 0 -28 32 -51
70 -23 39 -46 73 -51 76 -39 24 38 28 145 7z m1493 -92 c27 -19 47 -47 66 -88
29 -66 60 -222 55 -284 l-3 -41 -115 -3 c-193 -6 -347 -46 -535 -141 -170 -85
-275 -167 -539 -420 -133 -127 -281 -267 -331 -311 -540 -481 -1052 -687
-1700 -686 -556 2 -1025 162 -1479 506 -170 129 -401 374 -463 493 -27 52 -27
53 -8 74 10 11 47 34 82 52 l63 31 182 -120 c101 -66 221 -144 268 -173 47
-29 107 -73 135 -96 52 -46 153 -104 227 -130 132 -47 348 -60 463 -28 33 9
70 19 82 21 15 4 44 -12 100 -55 131 -99 303 -211 388 -252 103 -50 165 -63
284 -58 83 3 105 8 156 33 32 17 87 58 121 93 l63 62 69 0 c43 0 91 8 128 20
32 12 109 29 169 40 432 74 824 348 1390 970 219 242 411 432 484 479 82 53
137 56 198 12z m-4562 -779 c-2 -3 -56 30 -119 72 -113 76 -115 78 -130 131
-9 29 -16 57 -16 61 0 5 61 -52 135 -126 74 -74 132 -136 130 -138z m4763 119
c102 -52 249 -231 339 -412 133 -269 194 -529 298 -1284 20 -143 44 -316 54
-385 10 -69 16 -128 15 -132 -2 -3 -43 -9 -92 -13 -251 -18 -808 -97 -1462
-207 -234 -39 -441 -72 -460 -72 l-35 -1 -13 75 c-28 169 -85 441 -112 540
-86 316 -208 568 -351 724 -31 34 -49 61 -42 63 24 8 251 182 358 273 60 52
202 185 315 295 113 110 234 225 270 256 164 141 359 245 537 283 109 24 113
25 228 22 91 -2 117 -6 153 -25z m-2153 -541 c3 -5 -6 -12 -20 -16 -29 -7 -41
-1 -30 15 8 14 42 14 50 1z m-2584 -566 c399 -263 853 -407 1332 -421 103 -3
187 -10 187 -15 0 -5 -25 -49 -55 -99 -177 -290 -417 -535 -639 -650 -168 -88
-412 -150 -766 -195 -454 -57 -761 -37 -967 61 -212 103 -292 315 -228 601 48
213 206 399 436 515 113 57 277 212 361 340 l50 77 94 -74 c52 -40 140 -103
195 -140z m2721 -171 c62 -57 121 -134 109 -146 -25 -25 -363 61 -361 92 1 9
172 89 192 90 10 1 37 -16 60 -36z m-4063 -479 c-30 -112 -37 -312 -15 -419
55 -264 234 -430 561 -517 l120 -32 310 0 c285 0 325 2 498 27 104 15 232 37
284 47 113 24 103 23 103 7 0 -8 -26 -21 -62 -32 -35 -9 -76 -21 -92 -26 -16
-5 -95 -20 -175 -34 -362 -61 -722 -61 -1054 0 -287 53 -470 202 -558 455 -19
55 -23 86 -23 210 -1 127 2 153 22 210 24 67 91 195 98 187 2 -2 -5 -39 -17
-83z m6832 -731 c7 -24 24 -59 38 -76 24 -29 26 -37 26 -136 0 -93 -3 -112
-25 -156 -41 -81 -104 -112 -295 -141 -113 -18 -463 -14 -545 6 -25 6 -88 31
-140 55 l-95 44 -235 -35 c-129 -19 -280 -41 -335 -48 -55 -8 -167 -24 -248
-36 -82 -12 -151 -19 -154 -16 -6 6 -52 289 -47 295 9 10 931 161 1384 225
300 43 630 77 653 68 4 -2 12 -24 18 -49z m-7034 -45 c22 -48 124 -167 190
-220 172 -141 350 -198 722 -233 208 -19 358 -19 575 0 144 13 381 49 463 71
27 7 21 22 68 -178 54 -231 105 -385 238 -708 77 -188 157 -447 157 -507 0
-22 -3 -23 -395 -103 -815 -167 -1437 -229 -1626 -162 -159 56 -329 223 -486
475 -75 123 -199 370 -214 430 -20 83 -6 251 34 407 36 134 132 433 201 625
20 55 38 106 41 113 7 19 21 14 32 -10z m8293 -488 c106 -14 214 -53 306 -109
74 -46 210 -159 201 -167 -2 -3 -58 -13 -124 -24 -418 -68 -719 -201 -1233
-543 -311 -208 -812 -574 -1190 -871 -74 -59 -166 -122 -205 -140 -139 -67
-309 -83 -480 -46 -106 23 -241 76 -249 96 -8 21 -62 257 -80 349 -45 234
-190 1215 -180 1224 4 5 488 77 782 117 l122 17 68 -31 c101 -47 171 -61 352
-73 327 -21 596 18 743 108 l37 23 17 -35 c9 -19 15 -36 12 -38 -2 -2 -88 -53
-190 -114 -227 -135 -529 -335 -581 -384 -32 -30 -38 -42 -38 -77 0 -32 7 -49
29 -74 25 -28 36 -33 73 -32 38 0 66 16 258 145 498 334 920 555 1225 644 74
21 143 34 240 43 6 1 44 -3 85 -8z m806 -541 c14 -28 24 -53 22 -54 -2 -2 -58
-16 -123 -30 -406 -87 -805 -247 -1185 -475 -223 -134 -300 -192 -810 -610
-492 -404 -677 -530 -897 -607 -73 -26 -88 -28 -243 -27 -149 1 -173 3 -248
27 -51 16 -91 35 -102 49 -28 32 -96 166 -89 173 3 3 46 -4 95 -16 136 -34
336 -32 466 4 130 35 236 90 354 184 678 537 1407 1044 1729 1202 291 143 618
227 892 230 l113 1 26 -51z m-16 -295 c0 -13 -63 -109 -138 -214 -559 -773
-1228 -1225 -1997 -1349 -148 -24 -419 -57 -545 -67 l-85 -6 90 52 c205 119
352 227 713 525 134 110 309 253 390 318 419 337 889 575 1397 707 155 41 175
44 175 34z m-6654 -731 c-15 -80 -46 -100 -251 -154 -510 -135 -1148 -215
-1503 -189 -230 17 -357 49 -448 111 -63 43 -211 209 -186 209 5 0 16 -7 23
-16 19 -23 114 -86 177 -118 76 -38 180 -63 302 -71 288 -19 971 72 1645 219
259 56 249 56 241 9z"/>
</g>
</svg>
